#!OML:ASF H:\Terrain\Patient Classification 1\Takeo\Monday\TakeoMonday.ASF
:FULLY-SPECIFIED
:DEGREES
985
root 10.4392 16.7605 -0.208212 -10.2065 -43.4903 8.99426
lowerback 14.1672 -1.78014 -0.0863767
upperback 7.30922 -2.50578 2.78267
thorax -0.0978374 -1.39178 3.30204
lowerneck -14.696 7.85539 3.1311
upperneck 2.30827 10.7041 -11.5395
head 3.88306 4.73794 -3.18548
rclavicle 1.90833e-014 -6.36111e-015
rhumerus -25.6642 25.1546 -80.6069
rradius 109.275
rwrist 7.45826
rhand -28.0211 30.0937
rfingers 7.12502
rthumb -1.40629 0.118608
lclavicle 1.90833e-014 -6.36111e-015
lhumerus -33.1279 -13.1513 101.718
lradius 109.19
lwrist 19.5381
lhand -27.1075 1.70502
lfingers 7.12502
lthumb -0.523901 31.6841
rfemur -12.9034 3.64503 10.8918
rtibia 49.2766
rfoot -27.8081 -12.7487
rtoes -17.8671
lfemur -20.961 22.6253 -25.0676
ltibia 48.9149
lfoot -19.8395 16.8436
ltoes 0.923672
986
root 10.4579 16.7855 -0.197076 -9.8224 -42.9237 8.82896
lowerback 14.1769 -1.76367 -0.220363
upperback 7.27029 -2.495 2.75978
thorax -0.140094 -1.38687 3.35359
lowerneck -14.6156 7.63577 3.01807
upperneck 2.17176 10.401 -11.3757
head 3.79053 4.60412 -3.15207
rclavicle -4.41302e-014 1.90833e-014
rhumerus -23.7921 24.965 -79.8577
rradius 108.815
rwrist 7.38863
rhand -26.8359 29.8963
rfingers 7.12502
rthumb -0.261547 -0.0833082
lclavicle -4.41302e-014 1.90833e-014
lhumerus -33.1771 -13.1704 101.787
lradius 109.159
lwrist 19.6676
lhand -27.0785 1.74298
lfingers 7.12502
lthumb -0.495926 31.7221
rfemur -12.8848 2.9537 10.7807
rtibia 48.8875
rfoot -27.8038 -12.7586
rtoes -18.1103
lfemur -21.302 22.1632 -25.2813
ltibia 48.7258
lfoot -19.8 16.8566
ltoes 0.538131
987
root 10.4733 16.7962 -0.188779 -9.73486 -42.2757 8.74528
lowerback 14.4059 -1.72691 -0.403677
upperback 7.31365 -2.46776 2.55075
thorax -0.220029 -1.37262 3.24277
lowerneck -14.5099 7.47319 3.02574
upperneck 2.04384 10.1244 -10.7797
head 3.67728 4.50833 -3.00432
rclavicle -2.66371e-014 1.74931e-014
rhumerus -21.9155 24.7083 -79.3582
rradius 108.217
rwrist 7.58621
rhand -26.4671 29.4187
rfingers 7.12502
rthumb 0.0946237 -0.560987
lclavicle -2.66371e-014 1.74931e-014
lhumerus -33.2591 -13.3959 101.589
lradius 109.166
lwrist 19.8534
lhand -27.0363 1.7059
lfingers 7.12502
lthumb -0.455154 31.6852
rfemur -12.535 2.3739 10.6264
rtibia 48.446
rfoot -27.6843 -12.5626
rtoes -17.3634
lfemur -21.3311 21.6823 -25.4438
ltibia 48.5809
lfoot -19.5141 16.7594
ltoes -0.0437709
988
root 10.4881 16.8103 -0.187083 -9.04454 -41.9166 8.03928
lowerback 14.4699 -1.55108 -0.0729451
upperback 7.36612 -2.19465 2.51524
thorax -0.229364 -1.22637 2.98191
lowerneck -14.6947 7.11205 3.08604
upperneck 1.99834 9.59643 -10.4458
head 3.63952 4.26159 -2.95635
rclavicle 8.11041e-014 -2.22639e-014
rhumerus -19.7451 24.6702 -78.4695
rradius 107.294
rwrist 7.65791
rhand -26.7426 28.6216
rfingers 7.12502
rthumb -0.171468 -1.35812
lclavicle 8.11041e-014 -2.22639e-014
lhumerus -33.153 -13.8644 101.611
lradius 109.076
lwrist 19.8875
lhand -27.106 1.7809
lfingers 7.12502
lthumb -0.522486 31.76
rfemur -12.4503 2.1296 11.0938
rtibia 47.9714
rfoot -27.3015 -12.7408
rtoes -17.1344
lfemur -21.6304 21.3646 -25.1014
ltibia 48.4702
lfoot -18.8617 16.7329
ltoes -1.81247
989
root 10.4996 16.8355 -0.18052 -8.09535 -41.2477 7.07193
lowerback 14.3627 -1.52016 0.434689
upperback 7.42094 -2.09119 2.6118
thorax -0.134214 -1.16326 2.7769
lowerneck -15.0393 6.62462 2.5171
upperneck 2.0273 8.99166 -9.79257
head 3.60067 3.97851 -2.71462
rclavicle 3.97569e-014 0
rhumerus -17.4558 24.8793 -77.2792
rradius 106.406
rwrist 7.45232
rhand -26.8894 27.9256
rfingers 7.12502
rthumb -0.313278 -2.05394
lclavicle 3.97569e-014 0
lhumerus -32.9168 -14.1817 101.741
lradius 108.977
lwrist 19.9129
lhand -26.5843 2.06804
lfingers 7.12502
lthumb -0.0185678 32.0478
rfemur -12.3462 1.56345 11.7649
rtibia 47.4751
rfoot -26.8908 -12.9575
rtoes -16.4421
lfemur -22.0215 20.8662 -24.6268
ltibia 48.3698
lfoot -18.7391 16.4171
ltoes -0.311081
990
root 10.5066 16.8561 -0.165123 -7.56035 -39.9453 6.65089
lowerback 14.1406 -1.70428 0.476383
upperback 7.51337 -2.33226 2.57495
thorax 0.0889933 -1.28215 2.73739
lowerneck -15.308 6.26823 1.84167
upperneck 2.03154 8.56424 -8.83671
head 3.53849 3.80201 -2.35058
rclavicle 9.58142e-014 -2.54444e-014
rhumerus -15.1429 25.0482 -76.1544
rradius 105.588
rwrist 7.28174
rhand -26.9308 27.2432
rfingers 7.12502
rthumb -0.353268 -2.73626
lclavicle 9.58142e-014 -2.54444e-014
lhumerus -32.6809 -14.4012 101.713
lradius 108.864
lwrist 19.9801
lhand -26.0874 2.21049
lfingers 7.12502
lthumb 0.461363 32.1897
rfemur -11.9673 0.486707 11.8901
rtibia 46.9325
rfoot -26.7823 -12.9456
rtoes -15.1398
lfemur -22.2633 19.9846 -24.672
ltibia 48.2181
lfoot -18.8691 15.9283
ltoes 2.70402
991
root 10.5191 16.8699 -0.15217 -6.87875 -38.9595 6.16176
lowerback 13.8887 -1.75374 0.691648
upperback 7.50839 -2.37157 2.50472
thorax 0.207135 -1.29168 2.53794
lowerneck -15.2469 5.90815 1.57332
upperneck 1.92227 8.07833 -8.21697
head 3.42822 3.59664 -2.16523
rclavicle 1.07344e-013 -5.88403e-014
rhumerus -13.3786 24.824 -75.3168
rradius 104.976
rwrist 7.42521
rhand -26.888 26.6482
rfingers 7.12502
rthumb -0.31194 -3.33129
lclavicle 1.07344e-013 -5.88403e-014
lhumerus -32.7285 -14.7694 101.773
lradius 108.838
lwrist 19.8883
lhand -26.3376 1.89395
lfingers 7.12502
lthumb 0.219689 31.8736
rfemur -11.7986 -0.234368 12.1188
rtibia 46.3684
rfoot -26.9253 -12.9335
rtoes -14.199
lfemur -22.6458 19.3622 -24.6355
ltibia 47.9848
lfoot -18.6363 15.5315
ltoes 3.84309
992
root 10.5269 16.8933 -0.142726 -6.23389 -38.3825 5.47635
lowerback 13.8572 -1.64493 0.863835
upperback 7.53192 -2.20652 2.55617
thorax 0.238072 -1.20437 2.4713
lowerneck -15.1637 5.42523 1.12869
upperneck 1.76543 7.45731 -7.58848
head 3.29234 3.32346 -1.96
rclavicle -1.03766e-013 -6.36111e-015
rhumerus -12.0063 24.6279 -74.379
rradius 104.708
rwrist 7.91584
rhand -26.5861 26.1322
rfingers 7.12502
rthumb -0.0203337 -3.8475
lclavicle -1.03766e-013 -6.36111e-015
lhumerus -32.7459 -14.9376 101.815
lradius 108.867
lwrist 19.7144
lhand -26.5896 1.65167
lfingers 7.12502
lthumb -0.0237485 31.6314
rfemur -11.5498 -0.50874 12.6106
rtibia 45.8173
rfoot -27.0276 -12.9022
rtoes -13.3259
lfemur -22.8101 19.0385 -24.251
ltibia 47.6837
lfoot -18.1595 15.1854
ltoes 3.96382
993
root 10.5254 16.9212 -0.138929 -6.15951 -37.7229 5.2472
lowerback 14.1069 -1.43183 0.44352
upperback 7.66423 -1.97401 2.58976
thorax 0.251875 -1.1028 2.7189
lowerneck -15.2384 4.9005 0.915248
upperneck 1.43415 6.75572 -7.10431
head 3.50752 3.01311 -2.01428
rclavicle -1.34378e-013 6.04305e-014
rhumerus -10.3244 24.2445 -73.3318
rradius 104.195
rwrist 8.16631
rhand -26.0932 25.7604
rfingers 7.12502
rthumb 0.45572 -4.21882
lclavicle -1.34378e-013 6.04305e-014
lhumerus -32.5977 -15.0915 101.905
lradius 108.755
lwrist 19.3671
lhand -26.5805 2.09561
lfingers 7.12502
lthumb -0.0149672 32.0754
rfemur -11.0361 -0.842663 12.749
rtibia 45.3197
rfoot -26.8109 -13.0995
rtoes -13.3409
lfemur -22.5584 18.6641 -24.1433
ltibia 47.3081
lfoot -17.362 15.1291
ltoes 2.46922
994
root 10.5259 16.9361 -0.137401 -6.00503 -36.9072 5.04038
lowerback 14.3419 -1.28896 0.127147
upperback 7.72525 -1.81953 2.50433
thorax 0.191537 -1.03234 2.79387
lowerneck -15.3011 4.51327 0.949377
upperneck 1.35293 6.21262 -6.87829
head 3.45778 2.75601 -1.9884
rclavicle -4.73108e-014 1.11319e-014
rhumerus -8.47413 23.8783 -72.5602
rradius 103.304
rwrist 7.57851
rhand -26.234 25.5341
rfingers 7.12502
rthumb 0.319695 -4.44542
lclavicle -4.73108e-014 1.11319e-014
lhumerus -32.482 -15.3602 101.952
lradius 108.602
lwrist 19.0837
lhand -26.4281 2.83088
lfingers 7.12502
lthumb 0.132232 32.8106
rfemur -10.6708 -1.35129 12.8655
rtibia 44.8793
rfoot -26.4849 -13.6303
rtoes -14.5248
lfemur -22.4345 18.2275 -24.1547
ltibia 46.8895
lfoot -16.4863 15.1632
ltoes -0.139825
995
root 10.5296 16.9504 -0.127303 -5.82505 -35.8039 5.06234
lowerback 14.3907 -1.26357 -0.227276
upperback 7.70388 -1.82257 2.39371
thorax 0.150303 -1.03876 2.88044
lowerneck -15 4.13513 0.271966
upperneck 0.986697 5.75225 -6.05738
head 3.18697 2.57382 -1.62999
rclavicle -5.88403e-014 3.81667e-014
rhumerus -6.67919 23.6956 -71.6171
rradius 102.469
rwrist 6.80661
rhand -26.5801 25.0827
rfingers 7.12502
rthumb -0.0144944 -4.897
lclavicle -5.88403e-014 3.81667e-014
lhumerus -32.4181 -15.543 102.122
lradius 108.459
lwrist 19.0654
lhand -26.3475 3.08701
lfingers 7.12502
lthumb 0.210145 33.0667
rfemur -10.3734 -2.1169 12.6925
rtibia 44.4561
rfoot -26.3835 -14.1317
rtoes -15.5707
lfemur -22.4995 17.6577 -24.47
ltibia 46.4987
lfoot -15.9849 14.8746
ltoes -1.08662
996
root 10.5353 16.9636 -0.117322 -5.77063 -34.4226 5.38048
lowerback 14.4757 -1.26487 -0.86078
upperback 7.61128 -1.89087 2.3414
thorax 0.0307924 -1.0845 3.19763
lowerneck -14.8668 3.5545 -0.92685
upperneck 0.919417 5.11667 -4.90988
head 3.03035 2.30407 -1.08485
rclavicle 5.96354e-014 -3.18055e-015
rhumerus -4.91887 23.4338 -70.4151
rradius 101.641
rwrist 6.28206
rhand -26.6801 24.6314
rfingers 7.12502
rthumb -0.111085 -5.34831
lclavicle 5.96354e-014 -3.18055e-015
lhumerus -32.5154 -15.675 102.534
lradius 108.355
lwrist 19.0589
lhand -26.5262 2.72117
lfingers 7.12502
lthumb 0.0375713 32.7009
rfemur -10.006 -3.05831 12.2055
rtibia 43.9887
rfoot -26.4084 -14.3462
rtoes -15.5582
lfemur -22.5243 16.5861 -24.9913
ltibia 46.1977
lfoot -16.2283 14.0652
ltoes 0.5547
997
root 10.5409 16.9766 -0.115149 -5.15102 -33.3174 4.74904
lowerback 14.6329 -1.2212 -0.700874
upperback 7.57737 -1.80586 2.38012
thorax -0.0974417 -1.03426 3.14186
lowerneck -15.3747 2.90295 -1.36941
upperneck 1.31061 4.32394 -4.27615
head 3.21501 1.91973 -0.847924
rclavicle -1.63003e-014 0
rhumerus -3.09125 22.8261 -69.4876
rradius 100.676
rwrist 5.87492
rhand -26.6972 24.452
rfingers 7.12502
rthumb -0.127592 -5.52772
lclavicle -1.63003e-014 0
lhumerus -32.523 -16.0676 102.628
lradius 108.332
lwrist 19.1859
lhand -26.6719 2.48585
lfingers 7.12502
lthumb -0.103171 32.4656
rfemur -9.71247 -3.69976 12.71
rtibia 43.406
rfoot -26.3514 -14.5976
rtoes -14.9684
lfemur -22.5927 15.3521 -24.4836
ltibia 45.9753
lfoot -16.8892 12.8868
ltoes 3.48763
